{"asset":{"version":"2.0","generator":"THREE.GLTFExporter"},"scenes":[{"name":"AuxScene","nodes":[0]}],"scene":0,"nodes":[{"mesh":0}],"bufferViews":[{"buffer":0,"byteOffset":0,"byteLength":50700,"target":34962,"byteStride":12},{"buffer":0,"byteOffset":50700,"byteLength":50700,"target":34962,"byteStride":12},{"buffer":0,"byteOffset":101400,"byteLength":33800,"target":34962,"byteStride":8},{"buffer":0,"byteOffset":135200,"byteLength":48384,"target":34963}],"buffers":[{"byteLength":183584,"uri":"data:application/octet-stream;base64,"}],"accessors":[{"bufferView":0,"componentType":5126,"count":4225,"max":[1.5,1.5,1.5],"min":[-1.5,-1.5,-1.5],"type":"VEC3"},{"bufferView":1,"componentType":5126,"count":4225,"max":[1,1,1],"min":[-1,-1,-1],"type":"VEC3"},{"bufferView":2,"componentType":5126,"count":4225,"max":[1.0078125,1],"min":[-0.0078125,0],"type":"VEC2"},{"bufferView":3,"componentType":5123,"count":24192,"max":[4224],"min":[0],"type":"SCALAR"}],"materials":[{"pbrMetallicRoughness":{"metallicFactor":0,"roughnessFactor":0.95,"baseColorTexture":{"index":0,"texCoord":0}},"alphaMode":"BLEND","doubleSided":true,"extensions":{"KHR_materials_transmission":{"transmissionFactor":0.95},"KHR_materials_volume":{"thicknessFactor":1.2,"attenuationDistance":null,"attenuationColor":[1,1,1]},"KHR_materials_clearcoat":{"clearcoatFactor":0.5,"clearcoatRoughnessFactor":0}}}],"textures":[{"sampler":0,"source":0}],"samplers":[{"magFilter":9729,"minFilter":9987,"wrapS":33071,"wrapT":33071}],"images":[{"mimeType":"image/png","uri":"data:image/png;base64,"}],"meshes":[{"primitives":[{"mode":4,"attributes":{"POSITION":0,"NORMAL":1,"TEXCOORD_0":2},"indices":3,"material":0}]}],"extensionsUsed":["KHR_materials_transmission","KHR_materials_volume","KHR_materials_clearcoat"]}